<svg xmlns="http://www.w3.org/2000/svg" width="1600" height="900" viewBox="0 0 1600 900" preserveAspectRatio="xMidYMid slice">
  <defs>
    <linearGradient id="bg" x1="0" x2="1" y1="0" y2="1">
      <stop offset="0%" stop-color="#0d0a0a" />
      <stop offset="50%" stop-color="#141010" />
      <stop offset="100%" stop-color="#0a0a0a" />
    </linearGradient>
    <radialGradient id="glow1" cx="25%" cy="30%" r="35%">
      <stop offset="0%" stop-color="#ff6a00" stop-opacity="0.35" />
      <stop offset="100%" stop-color="#ff6a00" stop-opacity="0" />
    </radialGradient>
    <radialGradient id="glow2" cx="80%" cy="70%" r="40%">
      <stop offset="0%" stop-color="#ffb357" stop-opacity="0.25" />
      <stop offset="100%" stop-color="#ffb357" stop-opacity="0" />
    </radialGradient>
  </defs>
  <rect width="1600" height="900" fill="url(#bg)" />
  <rect width="1600" height="900" fill="url(#glow1)" />
  <rect width="1600" height="900" fill="url(#glow2)" />
  <g opacity="0.5" transform="translate(650 250)">
    <path d="M120 80c12 0 22 10 22 22v126h-32v-60H86v60H54V102c0-12 10-22 22-22z" fill="#ff6a00"/>
    <circle cx="76" cy="56" r="24" fill="#ffb357"/>
  </g>
  <g opacity="0.5" transform="translate(980 260)">
    <rect x="0" y="0" width="28" height="160" rx="12" fill="#ff6a00" />
    <rect x="44" y="0" width="28" height="160" rx="12" fill="#ffb357" />
    <rect x="88" y="0" width="28" height="160" rx="12" fill="#ff6a00" />
  </g>
  <text x="50%" y="88%" text-anchor="middle" fill="#ffffff" font-family="Poppins, Arial, sans-serif" font-size="42" font-weight="700" opacity="0.12">
    Your photo goes here
  </text>
</svg>
